PathFileType	4	(X/Y/Z)	C:\Users\Basilio\Documents\Thesis Gigler\squatting_fais\c3dfiles\075\SJ_pre4\markers_experimental.trc
DataRate	CameraRate	NumFrames	NumMarkers	Units	OrigDataRate	OrigDataStartFrame	OrigNumFrames
200.000000	200.000000	4	61	mm	200.000000	609	1624
Frame#	Time	FHD			LBHD			RBHD			C7			T10			CLAV			LSHO			LUUPA			LMUPA			LDUPA			LLEP			LMEP			LRAD			LUL			LRFIN			RSHO			RUPA1			RMUPA			RDUPA			RLEP			RMEP			RRAD			RUL			RUFIN			LASI			RASI			USACR			LSACR			RSACR			LTHI1			LTHI2			LTHI3			LTHI4			LLFC			LMFC			LTIB1			LTIB2			LTIB3			LTIB4			LLMAL			LMMAL			LHEE			LMT1			LMT2			LMT5			RTHI			RTHI2			RTHI3			RTHI4			RLFC			RMFC			RTIB1			RTIB2			RTIB3			RTIB4			RLMAL			RMMAL			RHEE			RMT1			RMT2			RMT5			
		X1	Y1	Z1	X2	Y2	Z2	X3	Y3	Z3	X4	Y4	Z4	X5	Y5	Z5	X6	Y6	Z6	X7	Y7	Z7	X8	Y8	Z8	X9	Y9	Z9	X10	Y10	Z10	X11	Y11	Z11	X12	Y12	Z12	X13	Y13	Z13	X14	Y14	Z14	X15	Y15	Z15	X16	Y16	Z16	X17	Y17	Z17	X18	Y18	Z18	X19	Y19	Z19	X20	Y20	Z20	X21	Y21	Z21	X22	Y22	Z22	X23	Y23	Z23	X24	Y24	Z24	X25	Y25	Z25	X26	Y26	Z26	X27	Y27	Z27	X28	Y28	Z28	X29	Y29	Z29	X30	Y30	Z30	X31	Y31	Z31	X32	Y32	Z32	X33	Y33	Z33	X34	Y34	Z34	X35	Y35	Z35	X36	Y36	Z36	X37	Y37	Z37	X38	Y38	Z38	X39	Y39	Z39	X40	Y40	Z40	X41	Y41	Z41	X42	Y42	Z42	X43	Y43	Z43	X44	Y44	Z44	X45	Y45	Z45	X46	Y46	Z46	X47	Y47	Z47	X48	Y48	Z48	X49	Y49	Z49	X50	Y50	Z50	X51	Y51	Z51	X52	Y52	Z52	X53	Y53	Z53	X54	Y54	Z54	X55	Y55	Z55	X56	Y56	Z56	X57	Y57	Z57	X58	Y58	Z58	X59	Y59	Z59	X60	Y60	Z60	X61	Y61	Z61	

610	3.045	54.73411941528322	1174.561401367188	-917.8305664062502	-122.6681213378907	1097.41259765625	-975.2637939453127	-59.55851364135744	1111.7783203125	-826.2204589843752	-186.7489929199219	1030.953735351563	-924.1611328125002	-414.3429565429689	810.0716552734377	-924.871032714844	-100.7234115600586	897.7535400390627	-921.8901977539065	-92.37285614013673	951.8654785156252	-1072.595825195313	-187.7748107910157	859.617370605469	-1255.037841796875	-193.5339965820313	811.9609985351565	-1240.66357421875	-222.0079956054688	811.8857421875002	-1294.834716796875	-277.1605224609376	747.1624145507814	-1320.012329101563	-344.9880065917969	805.2188110351565	-1297.524169921875	-431.6304626464845	646.6767578125001	-1146.362182617188	-401.0869750976564	584.5833129882814	-1175.893676757813	-402.371063232422	639.8969726562501	-1089.16796875	-104.0493698120117	952.095153808594	-767.9120483398439	-220.0901489257813	887.2109375000002	-598.6384887695314	-229.4395599365235	837.521423339844	-600.9931640625001	-264.5455627441407	853.6813964843752	-554.2825927734376	-313.5881042480469	805.305603027344	-524.3536376953126	-388.9330139160157	841.667419433594	-548.0755004882814	-399.0510864257814	606.4818725585939	-666.4713745117189	-432.8531188964845	657.1583862304689	-711.9789428710939	-386.9385681152345	648.2142944335939	-760.7999267578126	-379.6477966308594	607.3074951171876	-1049.3515625	-383.8170776367188	620.5837402343751	-797.9785766601565	-495.9835815429689	724.7131347656251	-924.7144775390627	-521.5076904296876	703.1688842773439	-950.3973388671877	-520.3334960937501	704.7606811523439	-893.935729980469	-371.0573730468751	516.0133056640626	-1149.909301757813	-289.3410644531251	506.223846435547	-1163.742431640625	-267.9868164062501	542.1185913085939	-1136.2734375	-257.2074890136719	457.0581054687501	-1175.81591796875	-178.4113464355469	401.019744873047	-1177.358154296875	-132.2612762451172	392.5278625488282	-1053.276611328125	-149.2615203857422	276.6639404296876	-1131.68310546875	-225.2637329101563	263.9708251953126	-1176.9697265625	-193.4332580566407	244.4511871337891	-1155.48291015625	-236.1825561523438	183.5270538330078	-1118.93017578125	-375.0420227050782	92.01902008056642	-1123.989624023438	-333.9318542480469	99.7575378417969	-1042.668334960938	-430.6250000000001	50.96895980834962	-1068.813232421875	-217.303939819336	52.67172241210939	-1087.807373046875	-226.1715087890626	56.90376663208009	-1135.971801757813	-272.6228332519532	40.93492889404298	-1181.980102539063	-412.8655090332032	535.1755371093751	-699.7891845703126	-348.1076965332032	543.1522827148439	-694.8682861328126	-335.7879028320313	568.9548339843751	-716.2476806640626	-292.6319274902344	483.6951599121095	-675.8814086914064	-176.3857879638672	403.2354431152345	-681.1430664062501	-136.9117889404297	396.5867919921876	-797.8955078125002	-167.386474609375	264.1525268554688	-746.5142822265626	-255.3873748779297	221.1433715820313	-695.1819458007814	-224.9055480957032	202.8143615722657	-726.0862426757814	-251.3659057617188	169.1817474365235	-767.8327636718751	-373.1979370117188	91.80270385742189	-739.0550537109376	-328.4367675781251	104.9619522094727	-817.762390136719	-424.5680541992189	52.40494918823244	-799.3191528320315	-216.3333587646485	57.39619064331056	-761.0408935546876	-226.4062805175782	57.82504272460939	-720.2514648437501	-270.3803405761719	35.88088989257813	-674.6953735351564	
611	3.05	54.99916839599611	1173.839721679688	-917.8425903320315	-122.4201354980469	1096.528442382813	-975.2967529296877	-59.28512191772462	1111.09814453125	-826.2387695312502	-186.643783569336	1030.195678710938	-924.1174316406252	-414.2084960937501	809.3071899414065	-924.941101074219	-100.6704177856446	896.8721313476565	-921.9025878906252	-92.21471405029298	950.8385009765627	-1072.600341796875	-187.818588256836	858.7944946289065	-1255.087524414063	-193.8423004150391	811.3446044921877	-1240.899047851563	-221.7148437500001	811.0808105468752	-1294.776123046875	-277.0331726074219	746.3520507812501	-1319.930053710938	-344.9977111816407	804.4520263671877	-1297.587280273438	-431.7676391601564	645.9757080078126	-1146.352783203125	-401.1253051757814	583.8974609375001	-1175.846069335938	-402.2657470703126	639.1596069335939	-1089.106689453125	-103.8021621704102	951.3455810546877	-767.8955078125001	-219.9165496826172	886.448181152344	-598.6201782226564	-229.344955444336	836.6870727539065	-601.0263671875001	-264.4335937500001	853.0241699218752	-554.2935791015626	-313.4010925292969	804.6324462890627	-524.3356933593751	-388.645965576172	841.0754394531252	-548.0460205078126	-399.0424194335939	605.7556762695314	-666.4692993164064	-432.7623596191407	656.4769287109376	-712.0245971679689	-386.9747924804689	647.6999511718751	-760.7782592773439	-379.8888244628907	606.4138183593751	-1049.504516601563	-384.1421508789064	620.0568847656251	-798.4431762695315	-495.9541625976564	723.9008178710939	-924.770690917969	-521.4628295898439	702.5018310546876	-950.4993896484377	-520.2515869140626	704.0985107421876	-893.9273681640627	-371.0936279296876	515.4479980468751	-1149.993041992188	-289.0676574707032	505.7730407714845	-1163.799560546875	-267.8153686523438	541.7127685546876	-1136.220458984375	-256.7911682128907	456.6120605468751	-1175.752685546875	-178.1700134277344	400.8349914550782	-1177.408935546875	-131.943588256836	392.3981323242189	-1053.205932617188	-149.0652008056641	276.4253234863282	-1131.724731445313	-225.0105133056641	263.8953857421876	-1176.986450195313	-193.2638397216797	244.3432922363282	-1155.4765625	-235.9134521484376	183.4490509033203	-1118.867797851563	-374.9345092773438	91.97362518310548	-1123.897094726563	-333.8273315429688	99.78582000732425	-1042.627685546875	-430.6526489257814	50.93212509155275	-1068.818115234375	-217.268539428711	52.70320510864259	-1087.874267578125	-226.2363281250001	56.90637588500978	-1136.01123046875	-272.5504455566407	40.92073440551759	-1181.99462890625	-412.7825012207032	534.6948852539064	-699.7990112304689	-347.9993896484376	542.6491699218751	-694.8575439453126	-335.7420043945313	568.4027709960939	-716.2886352539064	-292.4578247070313	483.339569091797	-675.7622680664064	-176.081527709961	403.0426635742189	-681.0616455078126	-138.2449340820313	396.8172912597657	-797.7395019531252	-167.1984252929688	263.9115600585938	-746.4984741210939	-255.2185668945313	220.9723815917969	-695.2402954101564	-224.8186950683594	202.7051239013672	-726.1484375000001	-250.9121856689454	169.089111328125	-767.6838378906251	-373.1235656738282	91.81787109375001	-739.1364746093751	-328.4604797363282	104.8574142456055	-817.7805786132815	-424.4725341796876	52.41893005371095	-799.3699340820315	-216.2965393066407	57.36011505126955	-761.0640258789064	-226.3905792236329	57.82115554809572	-720.2676391601564	-270.4118347167969	35.84630203247071	-674.7456054687501	
612	3.055	55.13697052001955	1172.89111328125	-917.8740844726565	-122.1417236328125	1095.904418945313	-975.1119384765627	-59.57366943359376	1110.024536132813	-826.7822875976565	-186.5039520263672	1029.422607421875	-924.031921386719	-414.0135498046876	808.573913574219	-924.958435058594	-100.45361328125	896.0450439453127	-921.768981933594	-92.03118896484376	950.0947265625002	-1072.622436523438	-187.4762420654297	857.895446777344	-1254.838989257813	-193.7192077636719	810.5402832031252	-1240.745483398438	-221.5488281250001	810.276062011719	-1294.618408203125	-277.2560424804688	745.6157226562501	-1320.056762695313	-344.9482421875001	803.8396606445315	-1297.614868164063	-432.2765502929689	645.3366699218751	-1146.366821289063	-401.1665039062501	583.2387695312501	-1175.881713867188	-401.1964416503907	638.2544555664064	-1088.863525390625	-103.7720336914063	950.645202636719	-767.9658203125001	-219.7431793212891	885.5488891601565	-598.5818481445314	-229.1635284423829	835.968933105469	-600.8803100585939	-264.2630920410157	852.2779541015627	-554.3349609375001	-313.3080139160157	803.9644165039065	-524.3345336914064	-388.442840576172	840.4214477539065	-547.9186401367189	-399.0055236816407	605.1026000976564	-666.5650634765626	-432.894500732422	655.9140014648439	-712.0371704101564	-387.0885314941407	647.0550537109376	-760.8775024414064	-379.6452636718751	605.7338867187501	-1049.378295898438	-384.0394287109376	619.4774780273439	-798.339294433594	-495.9716796875001	723.0566406250001	-924.7155761718752	-521.4124145507814	701.7832031250001	-950.5037231445315	-520.1669311523439	703.3670654296876	-894.024597167969	-370.9521179199219	515.0193481445314	-1150.08056640625	-288.9541931152344	505.3344726562501	-1163.838623046875	-267.5851135253907	541.3316040039064	-1136.12744140625	-256.5356750488282	456.1990051269532	-1175.815063476563	-177.8625640869141	400.5772705078126	-1177.405639648438	-131.683334350586	392.1885986328126	-1053.213012695313	-148.8327331542969	276.2833557128907	-1131.80224609375	-224.7690429687501	263.6420288085938	-1176.947265625	-193.143295288086	244.1656646728516	-1155.392456054688	-235.8204650878907	183.3084106445313	-1118.826293945313	-374.9521789550782	91.9976272583008	-1123.889038085938	-333.7795410156251	99.74685668945315	-1042.605224609375	-430.6017456054689	50.95428466796876	-1068.755615234375	-217.3103942871094	52.67116928100587	-1087.841552734375	-226.1516723632813	56.8513526916504	-1135.964233398438	-272.5470581054688	40.93858337402344	-1181.987426757813	-412.6503295898439	534.1968383789064	-699.8598022460939	-347.8780517578126	542.2053222656251	-694.9125366210939	-335.6933288574219	567.8829345703126	-716.3639526367189	-292.2269897460938	482.9939880371095	-675.7747802734376	-175.8194122314453	402.7961425781251	-680.9779052734376	-136.3360290527344	396.128387451172	-797.8692626953127	-166.9699096679688	263.7339477539063	-746.5119018554689	-255.1096649169922	220.9211883544922	-695.4857177734376	-224.6522216796876	202.5938568115235	-726.0901489257814	-251.7242126464844	168.9258422851563	-768.3645019531252	-373.1105957031251	91.8318328857422	-739.1401367187501	-328.3262329101563	104.9391479492188	-817.7700805664065	-424.3994445800782	52.43713760375978	-799.3933105468752	-216.2932891845704	57.341365814209	-761.0480346679689	-226.3758392333985	57.7910614013672	-720.2556152343751	-270.3813171386719	35.86675643920899	-674.7052001953126	
613	3.06	55.21914672851564	1172.199096679688	-917.9162597656252	-122.0369262695313	1095.147705078125	-975.0403442382815	-59.43933486938478	1109.203247070313	-826.761413574219	-186.3576049804688	1028.574829101563	-924.013366699219	-413.9310607910157	807.863220214844	-924.9165649414065	-100.400993347168	895.3082275390627	-921.744567871094	-91.74560546875001	949.3692626953127	-1072.458618164063	-187.2747192382813	857.162780761719	-1254.781127929688	-193.3332061767579	809.6359863281252	-1240.635498046875	-221.5834197998047	809.6734008789065	-1294.714111328125	-277.0993957519532	744.9056396484376	-1319.9794921875	-344.7434387207032	803.0422973632815	-1297.548706054688	-432.2035217285157	644.7798461914064	-1146.384399414063	-401.0061035156251	582.6764526367189	-1175.694458007813	-401.2891845703126	637.7200317382814	-1088.923706054688	-103.6409988403321	949.9157714843752	-767.9094848632814	-219.588607788086	884.997741699219	-598.5972900390626	-229.0113830566407	835.2278442382815	-600.8265991210939	-264.1498107910157	851.5028076171877	-554.3109130859376	-313.2942199707032	803.1926879882815	-524.3243408203126	-388.385223388672	839.7236938476565	-547.9566040039064	-398.9920959472657	604.5278320312501	-666.6762084960939	-432.7725524902345	655.3410034179689	-712.0371093750001	-387.1250000000001	646.4942016601564	-760.9772949218751	-379.8057861328126	604.8348999023439	-1049.381591796875	-384.0413208007814	618.9702758789064	-798.4309692382815	-495.8007812500001	722.4711303710939	-924.7334594726565	-521.4836425781251	701.1891479492189	-950.563415527344	-520.0898437500001	702.7914428710939	-894.0803222656252	-370.9560241699219	514.5934448242189	-1150.085205078125	-289.1191711425782	505.0233764648439	-1163.895263671875	-267.4995422363282	540.8753051757814	-1136.0419921875	-256.5578613281251	455.8583984375001	-1175.778564453125	-177.5613555908203	400.2910156250001	-1177.366455078125	-131.3968658447266	391.9821166992189	-1053.158081054688	-148.5109405517578	276.0943298339844	-1131.718872070313	-223.4234313964844	264.0661315917969	-1177.223022460938	-191.5731353759766	245.0576171875001	-1155.39013671875	-235.7678985595704	183.2684173583985	-1118.803833007813	-374.8801269531251	91.96675109863283	-1123.82763671875	-333.7522888183594	99.73233032226565	-1042.556640625	-430.5574035644532	51.02726364135744	-1068.650024414063	-217.2210235595704	52.65821456909181	-1087.847045898438	-226.2401885986329	56.89291000366212	-1135.986938476563	-272.5538635253907	40.93688964843751	-1181.96826171875	-412.5331115722657	533.7084960937501	-699.8419189453126	-347.8215026855469	541.7677612304689	-695.0100708007814	-335.6367187500001	567.4177246093751	-716.5787353515626	-292.0467529296876	482.5889282226564	-675.8298339843751	-175.5796966552735	402.6789550781251	-680.8535766601564	-136.7160186767578	396.2414855957032	-797.941833496094	-166.8955078125	263.5155639648438	-746.5343627929689	-255.0007781982422	220.8073425292969	-695.4946899414064	-224.5658111572266	202.5806274414063	-726.1586303710939	-251.6486206054688	168.8209381103516	-768.3851318359377	-373.0627441406251	91.82353973388673	-739.2060546875001	-328.2347106933594	104.9366073608399	-817.7703247070315	-424.2884521484376	52.38993072509767	-799.395202636719	-216.2412261962891	57.33134841918947	-761.0347900390626	-226.3664245605469	57.78756332397462	-720.2731933593751	-270.4346008300782	35.85238647460938	-674.7692871093751	
